<svg xmlns="http://www.w3.org/2000/svg" width="91" height="96" viewBox="0 0 91 96" fill="none">
  <g clip-path="url(#clip0_41_123)">
    <path d="M45.5 96.0001C68.3445 96.0001 86.8636 77.5798 86.8636 54.8572C86.8636 32.1346 68.3445 13.7144 45.5 13.7144C22.6555 13.7144 4.13635 32.1346 4.13635 54.8572C4.13635 77.5798 22.6555 96.0001 45.5 96.0001Z" fill="#202020"/>
    <mask id="mask0_41_123" style="mask-type:luminance" maskUnits="userSpaceOnUse" x="4" y="13" width="83" height="83">
      <path d="M45.5 96.0001C68.3445 96.0001 86.8636 77.5798 86.8636 54.8572C86.8636 32.1346 68.3445 13.7144 45.5 13.7144C22.6555 13.7144 4.13635 32.1346 4.13635 54.8572C4.13635 77.5798 22.6555 96.0001 45.5 96.0001Z" fill="white"/>
    </mask>
    <g mask="url(#mask0_41_123)">
      <path d="M86.8636 13.7144H4.13635V96.0001H86.8636V13.7144Z" fill="#202020"/>
    </g>
    <mask id="mask1_41_123" style="mask-type:luminance" maskUnits="userSpaceOnUse" x="0" y="0" width="91" height="96">
      <path d="M4.13636 54.8571C4.13636 77.5797 22.6555 96 45.5 96C68.3445 96 86.8636 77.5797 86.8636 54.8571H91V0H0V54.8571H4.13636Z" fill="white"/>
    </mask>
    <g mask="url(#mask1_41_123)">
      <path d="M53.7727 61.9237V68.2285H55.1515C68.8582 68.2285 79.9697 79.2807 79.9697 92.9142V95.9999H11.0303V92.9142C11.0303 79.2807 22.1418 68.2285 35.8485 68.2285H37.2272V61.9237C31.2856 59.1162 27.0146 53.3783 26.3021 46.5878C24.2943 46.3054 22.75 44.5892 22.75 42.5142V37.7142C22.75 35.6756 24.2406 33.9833 26.1969 33.6568V31.5428C26.1969 20.9389 34.8392 12.3428 45.5 12.3428C56.1607 12.3428 64.803 20.9389 64.803 31.5428V33.6568C66.7593 33.9833 68.25 35.6756 68.25 37.7142V42.5142C68.25 44.5892 66.7056 46.3054 64.6978 46.5878C63.9853 53.3783 59.7144 59.1162 53.7727 61.9237Z" fill="#D0C6AC"/>
      <mask id="mask2_41_123" style="mask-type:luminance" maskUnits="userSpaceOnUse" x="11" y="12" width="69" height="84">
        <path d="M53.7727 61.9237V68.2285H55.1515C68.8582 68.2285 79.9697 79.2807 79.9697 92.9142V95.9999H11.0303V92.9142C11.0303 79.2807 22.1418 68.2285 35.8485 68.2285H37.2272V61.9237C31.2856 59.1162 27.0146 53.3783 26.3021 46.5878C24.2943 46.3054 22.75 44.5892 22.75 42.5142V37.7142C22.75 35.6756 24.2406 33.9833 26.1969 33.6568V31.5428C26.1969 20.9389 34.8392 12.3428 45.5 12.3428C56.1607 12.3428 64.803 20.9389 64.803 31.5428V33.6568C66.7593 33.9833 68.25 35.6756 68.25 37.7142V42.5142C68.25 44.5892 66.7056 46.3054 64.6978 46.5878C63.9853 53.3783 59.7144 59.1162 53.7727 61.9237Z" fill="white"/>
      </mask>
      <g mask="url(#mask2_41_123)">
        <path d="M102.03 12.3428H11.0303V108.343H102.03V12.3428Z" fill="#FFDBB4"/>
      </g>
      <mask id="mask3_41_123" style="mask-type:luminance" maskUnits="userSpaceOnUse" x="11" y="12" width="69" height="84">
        <path d="M53.7727 61.9237V68.2285H55.1515C68.8582 68.2285 79.9697 79.2807 79.9697 92.9142V95.9999H11.0303V92.9142C11.0303 79.2807 22.1418 68.2285 35.8485 68.2285H37.2272V61.9237C31.2856 59.1162 27.0146 53.3783 26.3021 46.5878C24.2943 46.3054 22.75 44.5892 22.75 42.5142V37.7142C22.75 35.6756 24.2406 33.9833 26.1969 33.6568V31.5428C26.1969 20.9389 34.8392 12.3428 45.5 12.3428C56.1607 12.3428 64.803 20.9389 64.803 31.5428V33.6568C66.7593 33.9833 68.25 35.6756 68.25 37.7142V42.5142C68.25 44.5892 66.7056 46.3054 64.6978 46.5878C63.9853 53.3783 59.7144 59.1162 53.7727 61.9237Z" fill="white"/>
      </mask>
      <g mask="url(#mask3_41_123)">
        <path fill-rule="evenodd" clip-rule="evenodd" d="M64.803 39.4285V47.3142C64.803 57.918 56.1608 66.5142 45.5 66.5142C34.8392 66.5142 26.197 57.918 26.197 47.3142V39.4285V44.5713C26.197 55.1752 34.8392 63.7713 45.5 63.7713C56.1608 63.7713 64.803 55.1752 64.803 44.5713V39.4285Z" fill="black" fill-opacity="0.1"/>
      </g>
      <path fill-rule="evenodd" clip-rule="evenodd" d="M37.2272 62.7671C31.0507 63.4545 26.2934 65.332 26.1984 70.1639C17.2853 73.909 11.0303 82.6849 11.0303 92.914V95.9999H79.9697V92.914C79.9697 82.6849 73.7146 73.909 64.8016 70.1639C64.7065 65.332 59.9492 63.4545 53.7727 62.7671V69.2571C53.7727 73.8016 50.0689 77.4856 45.5 77.4856C40.9311 77.4856 37.2272 73.8016 37.2272 69.2571V62.7671Z" fill="#B7C1DB"/>
      <mask id="mask4_41_123" style="mask-type:luminance" maskUnits="userSpaceOnUse" x="11" y="62" width="69" height="34">
        <path fill-rule="evenodd" clip-rule="evenodd" d="M37.2272 62.7671C31.0507 63.4545 26.2934 65.332 26.1984 70.1639C17.2853 73.909 11.0303 82.6849 11.0303 92.914V95.9999H79.9697V92.914C79.9697 82.6849 73.7146 73.909 64.8016 70.1639C64.7065 65.332 59.9492 63.4545 53.7727 62.7671V69.2571C53.7727 73.8016 50.0689 77.4856 45.5 77.4856C40.9311 77.4856 37.2272 73.8016 37.2272 69.2571V62.7671Z" fill="white"/>
      </mask>
      <g mask="url(#mask4_41_123)">
        <path d="M91 58.2856H0V95.9999H91V58.2856Z" fill="#3C4F5C"/>
      </g>
      <mask id="mask5_41_123" style="mask-type:luminance" maskUnits="userSpaceOnUse" x="11" y="62" width="69" height="34">
        <path fill-rule="evenodd" clip-rule="evenodd" d="M37.2272 62.7671C31.0507 63.4545 26.2934 65.332 26.1984 70.1639C17.2853 73.909 11.0303 82.6849 11.0303 92.914V95.9999H79.9697V92.914C79.9697 82.6849 73.7146 73.909 64.8016 70.1639C64.7065 65.332 59.9492 63.4545 53.7727 62.7671V69.2571C53.7727 73.8016 50.0689 77.4856 45.5 77.4856C40.9311 77.4856 37.2272 73.8016 37.2272 69.2571V62.7671Z" fill="white"/>
      </mask>
      <g mask="url(#mask5_41_123)">
        <path fill-rule="evenodd" clip-rule="evenodd" d="M35.159 79.4533V96H32.7462V78.2229C33.5058 78.672 34.3134 79.0837 35.159 79.4533ZM58.2537 78.2229V92.0571C58.2537 92.7198 57.7136 93.2571 57.0473 93.2571C56.381 93.2571 55.8409 92.7198 55.8409 92.0571V79.4533C56.6865 79.0837 57.4941 78.672 58.2537 78.2229Z" fill="#F4F4F4"/>
      </g>
      <mask id="mask6_41_123" style="mask-type:luminance" maskUnits="userSpaceOnUse" x="11" y="62" width="69" height="34">
        <path fill-rule="evenodd" clip-rule="evenodd" d="M37.2272 62.7671C31.0507 63.4545 26.2934 65.332 26.1984 70.1639C17.2853 73.909 11.0303 82.6849 11.0303 92.914V95.9999H79.9697V92.914C79.9697 82.6849 73.7146 73.909 64.8016 70.1639C64.7065 65.332 59.9492 63.4545 53.7727 62.7671V69.2571C53.7727 73.8016 50.0689 77.4856 45.5 77.4856C40.9311 77.4856 37.2272 73.8016 37.2272 69.2571V62.7671Z" fill="white"/>
      </mask>
      <g mask="url(#mask6_41_123)">
        <path fill-rule="evenodd" clip-rule="evenodd" d="M31.3537 62.6482C26.1657 63.6242 22.5776 65.5688 22.5776 69.3625C22.5776 76.121 33.9656 81.5998 45.5 81.5998C57.0343 81.5998 68.4223 76.121 68.4223 69.3625C68.4223 65.5688 64.8343 63.6242 59.6463 62.6482C62.7779 63.7968 64.803 65.7276 64.803 68.9405C64.803 75.9321 55.2131 81.5998 45.5 81.5998C35.7868 81.5998 26.197 75.9321 26.197 68.9405C26.197 65.7276 28.2221 63.7968 31.3537 62.6482Z" fill="black" fill-opacity="0.16"/>
      </g>
      <path fill-rule="evenodd" clip-rule="evenodd" d="M40.6742 51.0857C40.6742 53.7367 42.8348 55.8857 45.5 55.8857C48.1651 55.8857 50.3257 53.7367 50.3257 51.0857" fill="black" fill-opacity="0.7"/>
      <path fill-rule="evenodd" clip-rule="evenodd" d="M41.3636 44.5715C41.3636 46.0864 43.2156 47.3144 45.5 47.3144C47.7845 47.3144 49.6364 46.0864 49.6364 44.5715" fill="black" fill-opacity="0.16"/>
      <path d="M36.5378 40.4571C37.6801 40.4571 38.606 39.536 38.606 38.3999C38.606 37.2638 37.6801 36.3428 36.5378 36.3428C35.3956 36.3428 34.4697 37.2638 34.4697 38.3999C34.4697 39.536 35.3956 40.4571 36.5378 40.4571Z" fill="black" fill-opacity="0.6"/>
      <path d="M54.4621 40.4571C55.6043 40.4571 56.5303 39.536 56.5303 38.3999C56.5303 37.2638 55.6043 36.3428 54.4621 36.3428C53.3199 36.3428 52.3939 37.2638 52.3939 38.3999C52.3939 39.536 53.3199 40.4571 54.4621 40.4571Z" fill="black" fill-opacity="0.6"/>
      <path d="M31.5713 32.9698C33.121 30.8008 36.4011 29.7098 39.7599 30.7871C40.1222 30.9034 40.5107 30.7054 40.6276 30.345C40.7444 29.9845 40.5454 29.5981 40.183 29.4819C36.2506 28.2205 32.3449 29.5196 30.4474 32.1754C30.2268 32.4841 30.2996 32.9122 30.61 33.1315C30.9203 33.3509 31.3507 33.2785 31.5713 32.9698Z" fill="black" fill-opacity="0.6"/>
      <path d="M59.418 35.3683C58.0685 33.4796 54.369 32.4205 51.1822 33.1989C50.8125 33.2892 50.4391 33.0643 50.3483 32.6965C50.2575 32.3287 50.4836 31.9574 50.8534 31.8671C54.5543 30.9631 58.8383 32.1895 60.5419 34.5739C60.7624 34.8826 60.6896 35.3106 60.3793 35.53C60.0689 35.7494 59.6385 35.677 59.418 35.3683Z" fill="black" fill-opacity="0.6"/>
      <mask id="mask7_41_123" style="mask-type:luminance" maskUnits="userSpaceOnUse" x="0" y="0" width="91" height="96">
        <path d="M91 0H0V96H91V0Z" fill="white"/>
      </mask>
      <g mask="url(#mask7_41_123)">
        <path fill-rule="evenodd" clip-rule="evenodd" d="M62.9692 13.3538C64.8327 11.6565 65.2813 8.21528 64.2231 5.98252C62.9242 3.24122 60.288 2.89778 57.7617 4.10344C55.3806 5.23998 53.2609 5.61859 50.6533 5.06792C48.1513 4.53956 45.7777 3.60765 43.1917 3.45461C38.9432 3.20318 34.8156 4.7706 31.92 7.92992C31.3675 8.53264 30.9224 9.22178 30.5016 9.92026C30.165 10.4791 29.7854 11.0788 29.6422 11.7229C29.5741 12.0292 29.7009 12.785 29.5475 13.036C29.3817 13.307 28.7562 13.5556 28.4895 13.7566C27.9495 14.1642 27.4816 14.6241 27.0488 15.1443C26.1298 16.2488 25.624 17.4025 25.1985 18.7689C23.7843 23.31 23.6644 28.7112 25.4927 33.1702C25.7364 33.7648 26.4917 35.0051 26.9357 33.7318C27.0234 33.4802 26.8204 32.6367 26.8209 32.3828C26.8225 31.4502 27.34 25.2758 29.5947 21.8169C30.3286 20.691 33.7217 16.475 34.4147 16.4411C34.7819 17.0215 38.5097 20.7299 48.1829 20.2953C52.5474 20.0992 55.9039 18.1487 56.7098 17.3032C57.0644 19.2002 61.1883 22.0401 61.8167 23.2087C63.6319 26.5842 64.0346 33.5984 64.7275 33.5853C65.4205 33.5721 65.9179 31.7895 66.0605 31.4492C67.1193 28.9205 67.2995 25.7467 67.1866 23.0291C67.0393 19.5312 65.5877 15.7514 62.9692 13.3538Z" fill="#28354B"/>
        <mask id="mask8_41_123" style="mask-type:luminance" maskUnits="userSpaceOnUse" x="24" y="3" width="44" height="32">
          <path fill-rule="evenodd" clip-rule="evenodd" d="M62.9692 13.3538C64.8327 11.6565 65.2813 8.21528 64.2231 5.98252C62.9242 3.24122 60.288 2.89778 57.7617 4.10344C55.3806 5.23998 53.2609 5.61859 50.6533 5.06792C48.1513 4.53956 45.7777 3.60765 43.1917 3.45461C38.9432 3.20318 34.8156 4.7706 31.92 7.92992C31.3675 8.53264 30.9224 9.22178 30.5016 9.92026C30.165 10.4791 29.7854 11.0788 29.6422 11.7229C29.5741 12.0292 29.7009 12.785 29.5475 13.036C29.3817 13.307 28.7562 13.5556 28.4895 13.7566C27.9495 14.1642 27.4816 14.6241 27.0488 15.1443C26.1298 16.2488 25.624 17.4025 25.1985 18.7689C23.7843 23.31 23.6644 28.7112 25.4927 33.1702C25.7364 33.7648 26.4917 35.0051 26.9357 33.7318C27.0234 33.4802 26.8204 32.6367 26.8209 32.3828C26.8225 31.4502 27.34 25.2758 29.5947 21.8169C30.3286 20.691 33.7217 16.475 34.4147 16.4411C34.7819 17.0215 38.5097 20.7299 48.1829 20.2953C52.5474 20.0992 55.9039 18.1487 56.7098 17.3032C57.0644 19.2002 61.1883 22.0401 61.8167 23.2087C63.6319 26.5842 64.0346 33.5984 64.7275 33.5853C65.4205 33.5721 65.9179 31.7895 66.0605 31.4492C67.1193 28.9205 67.2995 25.7467 67.1866 23.0291C67.0393 19.5312 65.5877 15.7514 62.9692 13.3538Z" fill="white"/>
        </mask>
        <g mask="url(#mask8_41_123)">
          <path d="M90.6553 0H-0.344727V96H90.6553V0Z" fill="#B58143"/>
        </g>
      </g>
    </g>
  </g>
  <defs>
    <clipPath id="clip0_41_123">
      <rect width="91" height="96" fill="white"/>
    </clipPath>
  </defs>
</svg>